<?xml version="1.0" standalone="no"?>
<!DOCTYPE svg PUBLIC "-//W3C//DTD SVG 20010904//EN"
 "http://www.w3.org/TR/2001/REC-SVG-20010904/DTD/svg10.dtd">
<svg version="1.0" xmlns="http://www.w3.org/2000/svg"
 width="500.000000pt" height="500.000000pt" viewBox="0 0 500.000000 500.000000"
 preserveAspectRatio="xMidYMid meet">
<metadata>
Created by potrace 1.14, written by Peter Selinger 2001-2017
</metadata>
<g transform="translate(0.000000,500.000000) scale(0.100000,-0.100000)"
fill="#000000" stroke="none">
<path d="M1130 4774 c-121 -18 -175 -30 -235 -51 -342 -122 -585 -404 -657
-763 -19 -95 -19 -2835 0 -2930 83 -412 390 -719 802 -802 95 -19 2835 -19
2930 0 412 83 719 390 802 802 19 95 19 2835 0 2930 -71 353 -305 630 -638
756 -163 61 -68 58 -1589 60 -765 1 -1401 0 -1415 -2z m2042 -1235 c370 -66
678 -126 685 -132 6 -7 84 -171 172 -366 155 -339 161 -354 146 -377 -8 -13
-21 -24 -28 -24 -6 0 -235 18 -507 40 -272 22 -545 44 -607 49 -61 5 -115 11
-120 14 -5 3 -101 208 -213 456 -113 248 -207 451 -210 451 -3 0 -90 -194
-195 -431 -119 -271 -197 -436 -210 -444 -22 -14 -1217 -137 -1242 -128 -44
17 -39 33 128 391 89 191 169 355 178 364 12 13 136 39 486 103 259 48 549
101 645 120 96 18 185 33 197 34 13 0 325 -53 695 -120z m-696 -563 c18 -14
19 -35 22 -718 l2 -703 28 3 c15 2 191 35 392 73 201 39 412 79 470 90 58 10
129 24 157 30 l53 10 2 351 c3 317 5 352 20 362 20 12 172 -7 194 -25 21 -17
21 -831 0 -851 -7 -8 -38 -19 -67 -26 -30 -6 -200 -43 -379 -81 -744 -160
-844 -181 -879 -181 -20 0 -130 20 -246 45 -335 71 -873 185 -960 202 -44 9
-88 23 -97 32 -15 14 -18 62 -29 430 -10 397 -10 414 8 431 15 14 67 21 283
40 711 60 771 67 786 82 8 8 48 97 90 198 90 223 103 240 150 206z"/>
</g>
</svg>
